<svg width="115" height="118" viewBox="0 0 115 118" fill="none" xmlns="http://www.w3.org/2000/svg">
<g filter="url(#filter0_df_8_18)">
<rect x="57.2548" y="3" width="75" height="75" transform="rotate(45 57.2548 3)" fill="#211D27"/>
<rect x="57.2548" y="5.12132" width="72" height="72" transform="rotate(45 57.2548 5.12132)" stroke="black" stroke-opacity="0.2" stroke-width="3"/>
</g>
<g filter="url(#filter1_f_8_18)">
<path d="M44 58C44 60.1 44.475 62.075 45.425 63.925C46.375 65.775 47.7 67.3167 49.4 68.55C49.2666 68.15 49.1666 67.7417 49.1 67.325C49.0333 66.9083 49 66.5 49 66.1C49 65.0333 49.2 64.0333 49.6 63.1C50 62.1667 50.5833 61.3167 51.35 60.55L57 55L62.65 60.55C63.4166 61.3167 64 62.1667 64.4 63.1C64.8 64.0333 65 65.0333 65 66.1C65 66.5 64.9666 66.9083 64.9 67.325C64.8333 67.7417 64.7333 68.15 64.6 68.55C66.3 67.3167 67.625 65.775 68.575 63.925C69.525 62.075 70 60.1 70 58C70 56.2 69.6166 54.4417 68.85 52.725C68.0833 51.0083 66.9833 49.4333 65.55 48C64.85 48.5 64.1166 48.8917 63.35 49.175C62.5833 49.4583 61.8166 49.6 61.05 49.6C59.0166 49.6 57.3333 48.9083 56 47.525C54.6666 46.1417 54 44.4 54 42.3V41.3C52.4666 42.4 51.0833 43.6167 49.85 44.95C48.6166 46.2833 47.5666 47.675 46.7 49.125C45.8333 50.575 45.1666 52.0583 44.7 53.575C44.2333 55.0917 44 56.5667 44 58ZM57 59.2L53.45 62.7C52.9833 63.1667 52.625 63.6833 52.375 64.25C52.125 64.8167 52 65.4333 52 66.1C52 67.4667 52.4833 68.625 53.45 69.575C54.4166 70.525 55.6 71 57 71C58.4 71 59.5833 70.525 60.55 69.575C61.5166 68.625 62 67.4667 62 66.1C62 65.4333 61.875 64.8167 61.625 64.25C61.375 63.6833 61.0166 63.1667 60.55 62.7L57 59.2ZM57 36V42.6C57 43.7333 57.3916 44.6833 58.175 45.45C58.9583 46.2167 59.9166 46.6 61.05 46.6C61.65 46.6 62.2083 46.475 62.725 46.225C63.2416 45.975 63.7 45.6 64.1 45.1L65 44C67.4666 45.4 69.4166 47.35 70.85 49.85C72.2833 52.35 73 55.0667 73 58C73 62.4667 71.45 66.25 68.35 69.35C65.25 72.45 61.4666 74 57 74C52.5333 74 48.75 72.45 45.65 69.35C42.55 66.25 41 62.4667 41 58C41 53.7333 42.4333 49.625 45.3 45.675C48.1666 41.725 52.0666 38.5 57 36Z" fill="#EBB26F"/>
<path d="M49.1064 68.9547L50.3667 69.8691L49.8743 68.3919C49.7496 68.0177 49.6561 67.6358 49.5937 67.246C49.531 66.854 49.5 66.4721 49.5 66.1C49.5 65.0976 49.6876 64.1649 50.0596 63.297C50.4326 62.4266 50.978 61.6294 51.7021 60.905C51.7025 60.9045 51.703 60.904 51.7035 60.9036L57 55.7009L62.2964 60.9036C62.2969 60.904 62.2974 60.9045 62.2979 60.905C63.0219 61.6294 63.5674 62.4265 63.9404 63.297C64.3124 64.1649 64.5 65.0976 64.5 66.1C64.5 66.4721 64.469 66.854 64.4063 67.246C64.3439 67.6358 64.2504 68.0177 64.1256 68.3919L63.6332 69.8691L64.8936 68.9547C66.6565 67.6758 68.0335 66.0739 69.0198 64.1534C70.0064 62.232 70.5 60.1786 70.5 58C70.5 56.1266 70.1005 54.299 69.3065 52.5211C68.5131 50.7445 67.3766 49.1196 65.9035 47.6464L65.604 47.3469L65.2594 47.5931C64.5936 48.0687 63.8995 48.4389 63.1767 48.706C62.4618 48.9702 61.7537 49.1 61.05 49.1C59.1436 49.1 57.5931 48.4574 56.36 47.178C55.1252 45.8969 54.5 44.2838 54.5 42.3V41.3V40.3259L53.7085 40.8937C52.1489 42.0126 50.74 43.2515 49.4829 44.6105C48.2278 45.9674 47.1565 47.3866 46.2708 48.8685C45.3849 50.3507 44.7013 51.8706 44.2221 53.428C43.7423 54.9872 43.5 56.5118 43.5 58C43.5 60.1786 43.9935 62.232 44.9802 64.1534C45.9664 66.0739 47.3435 67.6758 49.1064 68.9547ZM57.351 58.8439L57 58.4979L56.6489 58.8439L53.0989 62.3439L53.0964 62.3464C52.5889 62.8539 52.1941 63.4213 51.9175 64.0482C51.6374 64.6832 51.5 65.3692 51.5 66.1C51.5 67.5995 52.0363 68.8867 53.0995 69.9316C54.1631 70.9768 55.4737 71.5 57 71.5C58.5263 71.5 59.8369 70.9768 60.9004 69.9316C61.9637 68.8867 62.5 67.5995 62.5 66.1C62.5 65.3692 62.3626 64.6832 62.0824 64.0482C61.8059 63.4213 61.411 62.8539 60.9035 62.3464L60.901 62.3439L57.351 58.8439ZM62.9428 46.6751C63.5331 46.3894 64.0479 45.9649 64.4887 45.4145L65.1163 44.6474C67.3327 45.9846 69.0979 47.7993 70.4162 50.0987C71.8053 52.5216 72.5 55.1523 72.5 58C72.5 62.3369 71.0007 65.9922 67.9964 68.9964C64.9922 72.0007 61.3368 73.5 57 73.5C52.6631 73.5 49.0078 72.0007 46.0035 68.9964C42.9993 65.9922 41.5 62.3369 41.5 58C41.5 53.8536 42.8907 49.8461 45.7046 45.9687C48.3775 42.2857 51.9714 39.2356 56.5 36.8232V42.6C56.5 43.8627 56.9422 44.9431 57.8252 45.8073C58.7055 46.6689 59.7908 47.1 61.05 47.1C61.7219 47.1 62.3551 46.9594 62.9428 46.6751Z" stroke="black" stroke-opacity="0.2"/>
</g>
<defs>
<filter id="filter0_df_8_18" x="0.221802" y="0" width="114.066" height="117.066" filterUnits="userSpaceOnUse" color-interpolation-filters="sRGB">
<feFlood flood-opacity="0" result="BackgroundImageFix"/>
<feColorMatrix in="SourceAlpha" type="matrix" values="0 0 0 0 0 0 0 0 0 0 0 0 0 0 0 0 0 0 127 0" result="hardAlpha"/>
<feOffset dy="4"/>
<feGaussianBlur stdDeviation="2"/>
<feComposite in2="hardAlpha" operator="out"/>
<feColorMatrix type="matrix" values="0 0 0 0 0 0 0 0 0 0 0 0 0 0 0 0 0 0 0.25 0"/>
<feBlend mode="normal" in2="BackgroundImageFix" result="effect1_dropShadow_8_18"/>
<feBlend mode="normal" in="SourceGraphic" in2="effect1_dropShadow_8_18" result="shape"/>
<feGaussianBlur stdDeviation="1.5" result="effect2_foregroundBlur_8_18"/>
</filter>
<filter id="filter1_f_8_18" x="37" y="32" width="40" height="46" filterUnits="userSpaceOnUse" color-interpolation-filters="sRGB">
<feFlood flood-opacity="0" result="BackgroundImageFix"/>
<feBlend mode="normal" in="SourceGraphic" in2="BackgroundImageFix" result="shape"/>
<feGaussianBlur stdDeviation="2" result="effect1_foregroundBlur_8_18"/>
</filter>
</defs>
</svg>
