<svg width="168" height="171" viewBox="0 0 168 171" fill="none" xmlns="http://www.w3.org/2000/svg">
<g filter="url(#filter0_i_8_71)">
<g filter="url(#filter1_df_8_71)">
<rect x="84" y="3" width="113.137" height="113.137" transform="rotate(45 84 3)" fill="#211D27"/>
<rect x="84" y="5.12132" width="110.137" height="110.137" transform="rotate(45 84 5.12132)" stroke="black" stroke-opacity="0.2" stroke-width="3"/>
</g>
<g filter="url(#filter2_f_8_71)">
<path d="M64.0051 85.9672C64.0051 89.135 64.7217 92.1143 66.1547 94.905C67.5878 97.6958 69.5866 100.021 72.151 101.882C71.9499 101.278 71.799 100.662 71.6985 100.034C71.5979 99.4054 71.5476 98.7894 71.5476 98.186C71.5476 96.577 71.8493 95.0685 72.4527 93.6605C73.0561 92.2526 73.9361 90.9704 75.0926 89.8139L83.6156 81.4417L92.1386 89.8139C93.2951 90.9704 94.175 92.2526 94.7784 93.6605C95.3818 95.0685 95.6835 96.577 95.6835 98.186C95.6835 98.7894 95.6332 99.4054 95.5327 100.034C95.4321 100.662 95.2812 101.278 95.0801 101.882C97.6446 100.021 99.6433 97.6958 101.076 94.905C102.509 92.1143 103.226 89.135 103.226 85.9672C103.226 83.2519 102.648 80.5995 101.491 78.0099C100.335 75.4203 98.6754 73.0444 96.5132 70.8823C95.4572 71.6365 94.351 72.2273 93.1945 72.6547C92.038 73.0822 90.8815 73.2959 89.725 73.2959C86.6577 73.2959 84.1184 72.2525 82.1071 70.1657C80.0957 68.079 79.0901 65.4517 79.0901 62.2838V60.7754C76.777 62.4347 74.6903 64.27 72.8298 66.2814C70.9693 68.2927 69.3854 70.392 68.0781 72.5793C66.7707 74.7666 65.765 77.0042 65.0611 79.2921C64.3571 81.58 64.0051 83.805 64.0051 85.9672ZM83.6156 87.7774L78.2604 93.0571C77.5564 93.7611 77.0159 94.5405 76.6388 95.3953C76.2616 96.2501 76.0731 97.1803 76.0731 98.186C76.0731 100.248 76.8022 101.995 78.2604 103.428C79.7186 104.861 81.5037 105.578 83.6156 105.578C85.7274 105.578 87.5125 104.861 88.9707 103.428C90.4289 101.995 91.158 100.248 91.158 98.186C91.158 97.1803 90.9695 96.2501 90.5923 95.3953C90.2152 94.5405 89.6747 93.7611 88.9707 93.0571L83.6156 87.7774ZM83.6156 52.7803V62.7364C83.6156 64.446 84.2064 65.8791 85.388 67.0356C86.5697 68.1921 88.0153 68.7704 89.725 68.7704C90.6301 68.7704 91.4723 68.5818 92.2517 68.2047C93.0311 67.8276 93.7225 67.2619 94.3259 66.5076L95.6835 64.8483C99.4045 66.9602 102.346 69.9017 104.508 73.673C106.67 77.4442 107.751 81.5423 107.751 85.9672C107.751 92.7052 105.413 98.4123 100.737 103.089C96.0606 107.765 90.3535 110.103 83.6156 110.103C76.8776 110.103 71.1705 107.765 66.4941 103.089C61.8178 98.4123 59.4796 92.7052 59.4796 85.9672C59.4796 79.531 61.6418 73.3336 65.9662 67.375C70.2905 61.4165 76.1737 56.5516 83.6156 52.7803Z" fill="#EBB26F"/>
<path d="M71.8574 102.287L73.1177 103.201L72.6253 101.724C72.4328 101.146 72.2884 100.557 72.1922 99.9549C72.0956 99.3511 72.0476 98.7616 72.0476 98.186C72.0476 96.6412 72.3369 95.2001 72.9123 93.8575C73.4887 92.5126 74.3307 91.2832 75.4445 90.1691C75.445 90.1685 75.4456 90.168 75.4461 90.1674L83.6156 82.1426L91.785 90.1674C91.7855 90.168 91.7861 90.1685 91.7866 90.1691C92.9004 91.2832 93.7424 92.5126 94.3188 93.8575C94.8942 95.2001 95.1835 96.6412 95.1835 98.186C95.1835 98.7616 95.1356 99.3511 95.0389 99.9549C94.9427 100.557 94.7983 101.146 94.6058 101.724L94.1134 103.201L95.3737 102.287C98.001 100.38 100.052 97.9947 101.521 95.1334C102.991 92.2713 103.726 89.2137 103.726 85.9672C103.726 83.1785 103.132 80.4568 101.948 77.806C100.764 75.1565 99.0687 72.7307 96.8667 70.5287L96.5672 70.2292L96.2226 70.4754C95.2009 71.2052 94.1339 71.7745 93.0212 72.1857C91.9165 72.594 90.8185 72.7959 89.725 72.7959C86.7846 72.7959 84.3782 71.8015 82.4671 69.8187C80.5543 67.8343 79.5901 65.3354 79.5901 62.2838V60.7754V59.8013L78.7986 60.3691C76.4593 62.0473 74.347 63.9048 72.4628 65.9418C70.5805 67.9767 68.9753 70.1036 67.6489 72.3228C66.3223 74.5423 65.2997 76.8165 64.5832 79.1451C63.8661 81.4756 63.5051 83.7502 63.5051 85.9672C63.5051 89.2137 64.2402 92.2713 65.7099 95.1334C67.1792 97.9947 69.2301 100.38 71.8574 102.287ZM83.9666 87.4214L83.6156 87.0753L83.2645 87.4214L77.9094 92.7011L77.9068 92.7036C77.1621 93.4484 76.585 94.2785 76.1813 95.1935C75.774 96.1166 75.5731 97.1162 75.5731 98.186C75.5731 100.38 76.3552 102.257 77.9099 103.785C79.465 105.313 81.3774 106.078 83.6156 106.078C85.8537 106.078 87.7661 105.313 89.3212 103.785C90.8759 102.257 91.658 100.38 91.658 98.186C91.658 97.1162 91.4571 96.1166 91.0498 95.1935C90.6461 94.2785 90.0691 93.4484 89.3243 92.7036L89.3217 92.7011L83.9666 87.4214ZM66.3708 67.6687C70.5016 61.9768 76.0784 57.2857 83.1156 53.6004V62.7364C83.1156 64.5754 83.7569 66.1388 85.0383 67.3929C86.3169 68.6443 87.8895 69.2704 89.725 69.2704C90.702 69.2704 91.6191 69.0662 92.4695 68.6548C93.3225 68.242 94.0703 67.6269 94.7144 66.8224C94.715 66.8216 94.7157 66.8208 94.7163 66.82L95.8011 65.4942C99.271 67.5443 102.027 70.3509 104.074 73.9217C106.192 77.6158 107.251 81.6279 107.251 85.9672C107.251 92.5753 104.964 98.1545 100.383 102.735C95.8028 107.316 90.2237 109.603 83.6156 109.603C77.0074 109.603 71.4283 107.316 66.8477 102.735C62.2671 98.1545 59.9796 92.5753 59.9796 85.9672C59.9796 79.6512 62.0992 73.5546 66.3708 67.6687Z" stroke="black" stroke-opacity="0.2"/>
</g>
</g>
<defs>
<filter id="filter0_i_8_71" x="0" y="3" width="164" height="160" filterUnits="userSpaceOnUse" color-interpolation-filters="sRGB">
<feFlood flood-opacity="0" result="BackgroundImageFix"/>
<feBlend mode="normal" in="SourceGraphic" in2="BackgroundImageFix" result="shape"/>
<feColorMatrix in="SourceAlpha" type="matrix" values="0 0 0 0 0 0 0 0 0 0 0 0 0 0 0 0 0 0 127 0" result="hardAlpha"/>
<feOffset dx="-4"/>
<feGaussianBlur stdDeviation="2"/>
<feComposite in2="hardAlpha" operator="arithmetic" k2="-1" k3="1"/>
<feColorMatrix type="matrix" values="0 0 0 0 0.86675 0 0 0 0 0.4875 0 0 0 0 1 0 0 0 0.25 0"/>
<feBlend mode="normal" in2="shape" result="effect1_innerShadow_8_71"/>
</filter>
<filter id="filter1_df_8_71" x="0" y="0" width="168" height="171" filterUnits="userSpaceOnUse" color-interpolation-filters="sRGB">
<feFlood flood-opacity="0" result="BackgroundImageFix"/>
<feColorMatrix in="SourceAlpha" type="matrix" values="0 0 0 0 0 0 0 0 0 0 0 0 0 0 0 0 0 0 127 0" result="hardAlpha"/>
<feOffset dy="4"/>
<feGaussianBlur stdDeviation="2"/>
<feComposite in2="hardAlpha" operator="out"/>
<feColorMatrix type="matrix" values="0 0 0 0 0 0 0 0 0 0 0 0 0 0 0 0 0 0 0.25 0"/>
<feBlend mode="normal" in2="BackgroundImageFix" result="effect1_dropShadow_8_71"/>
<feBlend mode="normal" in="SourceGraphic" in2="effect1_dropShadow_8_71" result="shape"/>
<feGaussianBlur stdDeviation="1.5" result="effect2_foregroundBlur_8_71"/>
</filter>
<filter id="filter2_f_8_71" x="55.4796" y="48.7803" width="56.2718" height="65.3228" filterUnits="userSpaceOnUse" color-interpolation-filters="sRGB">
<feFlood flood-opacity="0" result="BackgroundImageFix"/>
<feBlend mode="normal" in="SourceGraphic" in2="BackgroundImageFix" result="shape"/>
<feGaussianBlur stdDeviation="2" result="effect1_foregroundBlur_8_71"/>
</filter>
</defs>
</svg>
