<svg width="168" height="171" viewBox="0 0 168 171" fill="none" xmlns="http://www.w3.org/2000/svg">
<g filter="url(#filter0_i_8_53)">
<g filter="url(#filter1_df_8_53)">
<rect x="84" y="3" width="113.137" height="113.137" transform="rotate(45 84 3)" fill="#211D27"/>
<rect x="84" y="5.12132" width="110.137" height="110.137" transform="rotate(45 84 5.12132)" stroke="black" stroke-opacity="0.2" stroke-width="3"/>
</g>
<g filter="url(#filter2_f_8_53)">
<path d="M82.547 103.466C83.2175 103.466 83.7308 103.327 84.087 103.051C84.4431 102.774 84.6212 102.36 84.6212 101.806C84.6212 101.253 84.4431 100.826 84.087 100.524C83.7308 100.222 83.1965 100.072 82.4842 100.072C80.7243 100.072 78.9329 99.4054 77.1102 98.0729C75.2874 96.7404 74.1246 94.3896 73.6218 91.0207C73.538 90.5681 73.3494 90.2036 73.0561 89.927C72.7628 89.6504 72.4485 89.5122 72.1133 89.5122C71.6524 89.5122 71.2962 89.7259 71.0448 90.1533C70.7934 90.5807 70.7096 91.0207 70.7934 91.4732C71.4219 95.697 72.9094 98.7517 75.256 100.637C77.6025 102.523 80.0329 103.466 82.547 103.466V103.466ZM82.6099 113.12C76.8692 113.12 72.0819 110.757 68.2478 106.03C64.4137 101.304 62.4966 95.4204 62.4966 88.3808C62.4966 83.3525 64.1623 77.8842 67.4935 71.9759C70.8248 66.0676 75.8636 59.6691 82.6099 52.7803C89.3562 59.6691 94.395 66.0676 97.7263 71.9759C101.058 77.8842 102.723 83.3525 102.723 88.3808C102.723 95.4204 100.806 101.304 96.972 106.03C93.1379 110.757 88.3506 113.12 82.6099 113.12ZM82.6099 108.595C87.303 108.595 91.1999 106.671 94.3007 102.825C97.4015 98.978 98.9519 94.1634 98.9519 88.3808C98.9519 84.4084 97.5587 79.8955 94.7721 74.8421C91.9856 69.7886 87.9315 64.446 82.6099 58.8143C77.2883 64.446 73.2342 69.7886 70.4477 74.8421C67.6611 79.8955 66.2679 84.4084 66.2679 88.3808C66.2679 94.1634 67.8183 98.978 70.9191 102.825C74.0199 106.671 77.9168 108.595 82.6099 108.595Z" fill="#6E82CC"/>
<path d="M71.2879 91.3996L71.2866 91.3909L71.285 91.3822C71.2249 91.0576 71.2803 90.7391 71.4757 90.4068C71.6456 90.118 71.8453 90.0122 72.1133 90.0122C72.296 90.0122 72.4926 90.0829 72.7131 90.2908C72.917 90.483 73.0607 90.7442 73.1286 91.1036C73.6421 94.5337 74.842 97.0341 76.8151 98.4765C78.6992 99.8539 80.5916 100.572 82.4842 100.572C83.1379 100.572 83.5349 100.712 83.7638 100.906C83.9868 101.095 84.1212 101.37 84.1212 101.806C84.1212 102.244 83.9868 102.496 83.7803 102.656C83.5455 102.838 83.1582 102.966 82.547 102.966C80.1681 102.966 77.8451 102.076 75.5692 100.248C73.3552 98.4684 71.9057 95.5509 71.2879 91.3996ZM82.9733 58.4709L82.6099 58.0863L82.2465 58.4709C76.9051 64.1236 72.8223 69.5 70.0098 74.6006C67.1998 79.6968 65.7679 84.2943 65.7679 88.3808C65.7679 94.2572 67.3455 99.1882 70.5298 103.138C73.7197 107.096 77.7566 109.095 82.6099 109.095C87.4632 109.095 91.5001 107.096 94.69 103.138C97.8743 99.1882 99.4519 94.2572 99.4519 88.3808C99.4519 84.2943 98.02 79.6968 95.21 74.6006C92.3975 69.5 88.3148 64.1236 82.9733 58.4709ZM82.6099 112.62C77.0301 112.62 72.3818 110.333 68.6361 105.715C64.8853 101.091 62.9966 95.3246 62.9966 88.3808C62.9966 83.4634 64.6259 78.0799 67.9291 72.2215C71.1733 66.4676 76.0621 60.2259 82.6099 53.4961C89.1577 60.2259 94.0465 66.4676 97.2907 72.2215C100.594 78.0799 102.223 83.4634 102.223 88.3808C102.223 95.3246 100.334 101.091 96.5837 105.715C92.838 110.333 88.1897 112.62 82.6099 112.62Z" stroke="black" stroke-opacity="0.2"/>
</g>
</g>
<defs>
<filter id="filter0_i_8_53" x="4" y="3" width="160" height="164" filterUnits="userSpaceOnUse" color-interpolation-filters="sRGB">
<feFlood flood-opacity="0" result="BackgroundImageFix"/>
<feBlend mode="normal" in="SourceGraphic" in2="BackgroundImageFix" result="shape"/>
<feColorMatrix in="SourceAlpha" type="matrix" values="0 0 0 0 0 0 0 0 0 0 0 0 0 0 0 0 0 0 127 0" result="hardAlpha"/>
<feOffset dy="4"/>
<feGaussianBlur stdDeviation="2"/>
<feComposite in2="hardAlpha" operator="arithmetic" k2="-1" k3="1"/>
<feColorMatrix type="matrix" values="0 0 0 0 0.86675 0 0 0 0 0.4875 0 0 0 0 1 0 0 0 0.25 0"/>
<feBlend mode="normal" in2="shape" result="effect1_innerShadow_8_53"/>
</filter>
<filter id="filter1_df_8_53" x="0" y="0" width="168" height="171" filterUnits="userSpaceOnUse" color-interpolation-filters="sRGB">
<feFlood flood-opacity="0" result="BackgroundImageFix"/>
<feColorMatrix in="SourceAlpha" type="matrix" values="0 0 0 0 0 0 0 0 0 0 0 0 0 0 0 0 0 0 127 0" result="hardAlpha"/>
<feOffset dy="4"/>
<feGaussianBlur stdDeviation="2"/>
<feComposite in2="hardAlpha" operator="out"/>
<feColorMatrix type="matrix" values="0 0 0 0 0 0 0 0 0 0 0 0 0 0 0 0 0 0 0.25 0"/>
<feBlend mode="normal" in2="BackgroundImageFix" result="effect1_dropShadow_8_53"/>
<feBlend mode="normal" in="SourceGraphic" in2="effect1_dropShadow_8_53" result="shape"/>
<feGaussianBlur stdDeviation="1.5" result="effect2_foregroundBlur_8_53"/>
</filter>
<filter id="filter2_f_8_53" x="57.4966" y="47.7803" width="50.2265" height="70.3398" filterUnits="userSpaceOnUse" color-interpolation-filters="sRGB">
<feFlood flood-opacity="0" result="BackgroundImageFix"/>
<feBlend mode="normal" in="SourceGraphic" in2="BackgroundImageFix" result="shape"/>
<feGaussianBlur stdDeviation="2.5" result="effect1_foregroundBlur_8_53"/>
</filter>
</defs>
</svg>
