<svg width="115" height="118" viewBox="0 0 115 118" fill="none" xmlns="http://www.w3.org/2000/svg">
<g filter="url(#filter0_df_8_16)">
<rect x="57.2548" y="3" width="75" height="75" transform="rotate(45 57.2548 3)" fill="#211D27"/>
<rect x="57.2548" y="5.12132" width="72" height="72" transform="rotate(45 57.2548 5.12132)" stroke="black" stroke-opacity="0.2" stroke-width="3" stroke-linecap="round"/>
</g>
<g filter="url(#filter1_f_8_16)">
<path d="M56.2916 69.6C56.7361 69.6 57.0764 69.5083 57.3125 69.325C57.5486 69.1417 57.6666 68.8667 57.6666 68.5C57.6666 68.1333 57.5486 67.85 57.3125 67.65C57.0764 67.45 56.7222 67.35 56.25 67.35C55.0833 67.35 53.8958 66.9083 52.6875 66.025C51.4791 65.1417 50.7083 63.5833 50.375 61.35C50.3194 61.05 50.1944 60.8083 50 60.625C49.8055 60.4417 49.5972 60.35 49.375 60.35C49.0694 60.35 48.8333 60.4917 48.6666 60.775C48.5 61.0583 48.4444 61.35 48.5 61.65C48.9166 64.45 49.9027 66.475 51.4583 67.725C53.0139 68.975 54.625 69.6 56.2916 69.6V69.6ZM56.3333 76C52.5277 76 49.3541 74.4333 46.8125 71.3C44.2708 68.1667 43 64.2667 43 59.6C43 56.2667 44.1041 52.6417 46.3125 48.725C48.5208 44.8083 51.8611 40.5667 56.3333 36C60.8055 40.5667 64.1458 44.8083 66.3541 48.725C68.5625 52.6417 69.6666 56.2667 69.6666 59.6C69.6666 64.2667 68.3958 68.1667 65.8541 71.3C63.3125 74.4333 60.1389 76 56.3333 76ZM56.3333 73C59.4444 73 62.0277 71.725 64.0833 69.175C66.1389 66.625 67.1666 63.4333 67.1666 59.6C67.1666 56.9667 66.243 53.975 64.3958 50.625C62.5486 47.275 59.8611 43.7333 56.3333 40C52.8055 43.7333 50.118 47.275 48.2708 50.625C46.4236 53.975 45.5 56.9667 45.5 59.6C45.5 63.4333 46.5277 66.625 48.5833 69.175C50.6389 71.725 53.2222 73 56.3333 73Z" fill="#6E82CC"/>
<path d="M48.9945 61.5764L48.9932 61.5677L48.9916 61.559C48.9598 61.3869 48.9869 61.2167 49.0976 61.0285C49.1827 60.8838 49.2623 60.85 49.375 60.85C49.4447 60.85 49.5354 60.8742 49.657 60.9888C49.7622 61.088 49.8423 61.2266 49.8819 61.4332C50.2258 63.7276 51.0338 65.4355 52.3924 66.4286C53.6621 67.3568 54.9506 67.85 56.25 67.85C56.6635 67.85 56.8804 67.9393 56.9893 68.0315C57.0922 68.1187 57.1666 68.2503 57.1666 68.5C57.1666 68.751 57.0923 68.863 57.0058 68.9301C56.891 69.0192 56.6768 69.1 56.2916 69.1C54.7602 69.1 53.2564 68.5285 51.7715 67.3352C50.3485 66.1917 49.4004 64.3039 48.9945 61.5764ZM56.6967 39.6566L56.3333 39.272L55.9699 39.6566C52.4223 43.4109 49.7062 46.9864 47.833 50.3836C45.9622 53.7763 45 56.8526 45 59.6C45 63.5272 46.055 66.8353 48.194 69.4888C50.3387 72.1494 53.062 73.5 56.3333 73.5C59.6046 73.5 62.3279 72.1494 64.4726 69.4888C66.6116 66.8353 67.6666 63.5272 67.6666 59.6C67.6666 56.8526 66.7044 53.7763 64.8336 50.3836C62.9604 46.9864 60.2443 43.4109 56.6967 39.6566ZM56.3333 75.5C52.6886 75.5 49.6541 74.0094 47.2008 70.985C44.7424 67.9544 43.5 64.1708 43.5 59.6C43.5 56.3776 44.5678 52.8374 46.748 48.9706C48.8693 45.2083 52.0598 41.1236 56.3333 36.7164C60.6068 41.1236 63.7973 45.2083 65.9186 48.9706C68.0988 52.8374 69.1666 56.3776 69.1666 59.6C69.1666 64.1708 67.9242 67.9544 65.4658 70.985C63.0125 74.0094 59.978 75.5 56.3333 75.5Z" stroke="black" stroke-opacity="0.2" stroke-linecap="round"/>
</g>
<defs>
<filter id="filter0_df_8_16" x="0.221802" y="0" width="114.066" height="117.066" filterUnits="userSpaceOnUse" color-interpolation-filters="sRGB">
<feFlood flood-opacity="0" result="BackgroundImageFix"/>
<feColorMatrix in="SourceAlpha" type="matrix" values="0 0 0 0 0 0 0 0 0 0 0 0 0 0 0 0 0 0 127 0" result="hardAlpha"/>
<feOffset dy="4"/>
<feGaussianBlur stdDeviation="2"/>
<feComposite in2="hardAlpha" operator="out"/>
<feColorMatrix type="matrix" values="0 0 0 0 0 0 0 0 0 0 0 0 0 0 0 0 0 0 0.25 0"/>
<feBlend mode="normal" in2="BackgroundImageFix" result="effect1_dropShadow_8_16"/>
<feBlend mode="normal" in="SourceGraphic" in2="effect1_dropShadow_8_16" result="shape"/>
<feGaussianBlur stdDeviation="1.5" result="effect2_foregroundBlur_8_16"/>
</filter>
<filter id="filter1_f_8_16" x="40" y="33" width="32.6667" height="46" filterUnits="userSpaceOnUse" color-interpolation-filters="sRGB">
<feFlood flood-opacity="0" result="BackgroundImageFix"/>
<feBlend mode="normal" in="SourceGraphic" in2="BackgroundImageFix" result="shape"/>
<feGaussianBlur stdDeviation="1.5" result="effect1_foregroundBlur_8_16"/>
</filter>
</defs>
</svg>
