<svg width="115" height="118" viewBox="0 0 115 118" fill="none" xmlns="http://www.w3.org/2000/svg">
<g filter="url(#filter0_df_8_17)">
<rect x="57.2548" y="3" width="75" height="75" transform="rotate(45 57.2548 3)" fill="#211D27"/>
<rect x="57.2548" y="5.12132" width="72" height="72" transform="rotate(45 57.2548 5.12132)" stroke="black" stroke-opacity="0.2" stroke-width="3"/>
</g>
<g filter="url(#filter1_f_8_17)">
<path d="M42.15 48.1L40 45.95L43.4 42.55C44.2667 41.6833 45.2667 41.0417 46.4 40.625C47.5333 40.2083 48.7 40 49.9 40C51.1 40 52.2583 40.2083 53.375 40.625C54.4917 41.0417 55.4833 41.6833 56.35 42.55L60.1 46.3C60.6667 46.8667 61.35 47.2917 62.15 47.575C62.95 47.8583 63.7667 48 64.6 48C65.4333 48 66.225 47.8583 66.975 47.575C67.725 47.2917 68.3833 46.8667 68.95 46.3L72.35 42.9L74.5 45.05L71.1 48.45C70.2333 49.3167 69.225 49.9583 68.075 50.375C66.925 50.7917 65.75 51 64.55 51C63.35 51 62.175 50.7917 61.025 50.375C59.875 49.9583 58.8667 49.3167 58 48.45L54.25 44.7C53.6833 44.1333 53.0167 43.7083 52.25 43.425C51.4833 43.1417 50.7 43 49.9 43C49.1 43 48.3167 43.1417 47.55 43.425C46.7833 43.7083 46.1167 44.1333 45.55 44.7L42.15 48.1ZM42.15 58.6L40 56.45L43.4 53.05C44.2667 52.1833 45.2667 51.5333 46.4 51.1C47.5333 50.6667 48.7 50.45 49.9 50.45C51.1 50.45 52.2583 50.6667 53.375 51.1C54.4917 51.5333 55.4833 52.1833 56.35 53.05L60.1 56.8C60.6667 57.3667 61.3417 57.7917 62.125 58.075C62.9083 58.3583 63.7167 58.5 64.55 58.5C65.3833 58.5 66.1833 58.3583 66.95 58.075C67.7167 57.7917 68.3833 57.3667 68.95 56.8L72.35 53.4L74.5 55.5L71.1 58.95C70.2333 59.8167 69.225 60.4583 68.075 60.875C66.925 61.2917 65.75 61.5 64.55 61.5C63.35 61.5 62.175 61.2917 61.025 60.875C59.875 60.4583 58.8667 59.8167 58 58.95L54.25 55.15C53.6833 54.5833 53.0167 54.1583 52.25 53.875C51.4833 53.5917 50.7 53.45 49.9 53.45C49.1 53.45 48.3167 53.5917 47.55 53.875C46.7833 54.1583 46.1167 54.5833 45.55 55.15L42.15 58.6ZM42.15 69.05L40 66.9L43.4 63.5C44.2667 62.6333 45.2667 61.9833 46.4 61.55C47.5333 61.1167 48.7 60.9 49.9 60.9C51.1 60.9 52.2583 61.1167 53.375 61.55C54.4917 61.9833 55.4833 62.6333 56.35 63.5L60.1 67.25C60.6667 67.8167 61.3417 68.25 62.125 68.55C62.9083 68.85 63.7167 69 64.55 69C65.3833 69 66.1833 68.85 66.95 68.55C67.7167 68.25 68.3833 67.8167 68.95 67.25L72.35 63.85L74.5 65.95L71.1 69.4C70.2333 70.2667 69.225 70.9167 68.075 71.35C66.925 71.7833 65.75 72 64.55 72C63.35 72 62.175 71.7833 61.025 71.35C59.875 70.9167 58.8667 70.2667 58 69.4L54.25 65.6C53.6833 65.0333 53.0167 64.6083 52.25 64.325C51.4833 64.0417 50.7 63.9 49.9 63.9C49.1 63.9 48.3167 64.0417 47.55 64.325C46.7833 64.6083 46.1167 65.0333 45.55 65.6L42.15 69.05Z" fill="#9BBED2"/>
<path d="M54.6059 54.7988L54.6059 54.7988L54.6035 54.7964C53.9848 54.1777 53.2563 53.7138 52.4233 53.406C51.6024 53.1026 50.7604 52.95 49.9 52.95C49.0395 52.95 48.1976 53.1026 47.3767 53.406C46.5437 53.7138 45.8152 54.1777 45.1964 54.7964L45.1964 54.7964L45.1939 54.799L42.1474 57.8903L40.7071 56.45L43.7535 53.4036C44.571 52.5861 45.5116 51.975 46.5786 51.567C47.6555 51.1552 48.7617 50.95 49.9 50.95C51.0382 50.95 52.1352 51.1552 53.1941 51.5661C54.2445 51.9737 55.1777 52.5848 55.9964 53.4036L59.7464 57.1536C60.367 57.7741 61.1054 58.2379 61.9549 58.5452C62.7928 58.8483 63.6587 59 64.55 59C65.4413 59 66.3001 58.8482 67.1233 58.544C67.9563 58.2362 68.6848 57.7723 69.3035 57.1536L72.3541 54.103L73.7913 55.5068L70.7464 58.5964C70.746 58.5969 70.7456 58.5973 70.7452 58.5977C69.9305 59.412 68.9851 60.0134 67.9047 60.4049C66.8082 60.8022 65.6908 61 64.55 61C63.4092 61 62.2918 60.8022 61.1953 60.4049C60.1148 60.0134 59.1693 59.4119 58.3546 58.5975C58.3542 58.5971 58.3539 58.5968 58.3535 58.5964L54.6059 54.7988ZM54.6059 65.2488L54.6035 65.2464C53.9848 64.6277 53.2563 64.1638 52.4233 63.856C51.6024 63.5526 50.7604 63.4 49.9 63.4C49.0395 63.4 48.1976 63.5526 47.3767 63.856C46.5437 64.1638 45.8152 64.6277 45.1964 65.2464L45.1939 65.249L42.1474 68.3403L40.7071 66.9L43.7535 63.8536C44.571 63.0361 45.5116 62.425 46.5786 62.017C47.6555 61.6052 48.7617 61.4 49.9 61.4C51.0382 61.4 52.1352 61.6052 53.1941 62.0161C54.2445 62.4237 55.1777 63.0348 55.9964 63.8536L59.7464 67.6036C60.3651 68.2222 61.1004 68.693 61.9462 69.0169C62.7862 69.3386 63.6551 69.5 64.55 69.5C65.4449 69.5 66.3067 69.3386 67.1322 69.0156C67.9613 68.6912 68.6867 68.2203 69.3035 67.6036L72.3541 64.553L73.7913 65.9568L70.7464 69.0464C70.746 69.0469 70.7456 69.0473 70.7452 69.0477C69.9292 69.8633 68.9818 70.474 67.8987 70.8821C66.8037 71.2947 65.6883 71.5 64.55 71.5C63.4117 71.5 62.2963 71.2947 61.2013 70.8821C60.1181 70.474 59.1706 69.8632 58.3546 69.0475C58.3542 69.0471 58.3539 69.0468 58.3535 69.0464L54.6059 65.2488ZM42.15 47.3929L40.7071 45.95L43.7535 42.9036C44.5698 42.0873 45.5082 41.4856 46.5725 41.0943C47.6509 40.6978 48.7592 40.5 49.9 40.5C51.0407 40.5 52.1398 40.6978 53.2002 41.0935C54.2478 41.4843 55.179 42.0861 55.9964 42.9036L59.7464 46.6536C60.3689 47.276 61.1171 47.7396 61.9831 48.0463C62.8357 48.3483 63.7087 48.5 64.6 48.5C65.4913 48.5 66.343 48.3482 67.1517 48.0427C67.968 47.7343 68.6867 47.2704 69.3035 46.6536L72.35 43.6071L73.7929 45.05L70.7464 48.0964C69.9315 48.9114 68.9856 49.5132 67.9047 49.9049C66.8082 50.3022 65.6908 50.5 64.55 50.5C63.4092 50.5 62.2918 50.3022 61.1953 49.9049C60.1143 49.5132 59.1685 48.9114 58.3535 48.0964L54.6035 44.3464C53.9848 43.7277 53.2563 43.2638 52.4233 42.956C51.6024 42.6526 50.7604 42.5 49.9 42.5C49.0395 42.5 48.1976 42.6526 47.3767 42.956C46.5437 43.2638 45.8152 43.7277 45.1964 44.3464L42.15 47.3929Z" stroke="black" stroke-opacity="0.2"/>
</g>
<defs>
<filter id="filter0_df_8_17" x="0.221802" y="0" width="114.066" height="117.066" filterUnits="userSpaceOnUse" color-interpolation-filters="sRGB">
<feFlood flood-opacity="0" result="BackgroundImageFix"/>
<feColorMatrix in="SourceAlpha" type="matrix" values="0 0 0 0 0 0 0 0 0 0 0 0 0 0 0 0 0 0 127 0" result="hardAlpha"/>
<feOffset dy="4"/>
<feGaussianBlur stdDeviation="2"/>
<feComposite in2="hardAlpha" operator="out"/>
<feColorMatrix type="matrix" values="0 0 0 0 0 0 0 0 0 0 0 0 0 0 0 0 0 0 0.25 0"/>
<feBlend mode="normal" in2="BackgroundImageFix" result="effect1_dropShadow_8_17"/>
<feBlend mode="normal" in="SourceGraphic" in2="effect1_dropShadow_8_17" result="shape"/>
<feGaussianBlur stdDeviation="1.5" result="effect2_foregroundBlur_8_17"/>
</filter>
<filter id="filter1_f_8_17" x="36" y="36" width="42.5" height="40" filterUnits="userSpaceOnUse" color-interpolation-filters="sRGB">
<feFlood flood-opacity="0" result="BackgroundImageFix"/>
<feBlend mode="normal" in="SourceGraphic" in2="BackgroundImageFix" result="shape"/>
<feGaussianBlur stdDeviation="2" result="effect1_foregroundBlur_8_17"/>
</filter>
</defs>
</svg>
