<svg width="168" height="172" viewBox="0 0 168 172" fill="none" xmlns="http://www.w3.org/2000/svg">
<g filter="url(#filter0_i_8_104)">
<g filter="url(#filter1_df_8_104)">
<rect width="113.137" height="113.137" transform="matrix(0.706961 0.707253 -0.706961 0.707253 83.9835 3)" fill="#211D27"/>
<rect y="2.12176" width="110.137" height="110.137" transform="matrix(0.706961 0.707253 -0.706961 0.707253 85.4835 3.62114)" stroke="black" stroke-opacity="0.2" stroke-width="3"/>
</g>
<g filter="url(#filter2_f_8_104)">
<path d="M61.198 71.0331L57.9547 67.7898L63.0836 62.661C64.391 61.3536 65.8994 60.3856 67.6091 59.7571C69.3187 59.1286 71.0786 58.8143 72.8888 58.8143C74.699 58.8143 76.4463 59.1286 78.1308 59.7571C79.8153 60.3856 81.3112 61.3536 82.6186 62.661L88.2754 68.3178C89.1303 69.1726 90.1611 69.8137 91.3679 70.2411C92.5747 70.6686 93.8066 70.8823 95.0637 70.8823C96.3208 70.8823 97.515 70.6686 98.6463 70.2411C99.7777 69.8137 100.771 69.1726 101.626 68.3178L106.755 63.1889L109.998 66.4322L104.869 71.5611C103.562 72.8684 102.04 73.8364 100.306 74.4649C98.5709 75.0935 96.7984 75.4077 94.9882 75.4077C93.1781 75.4077 91.4056 75.0935 89.6708 74.4649C87.936 73.8364 86.415 72.8684 85.1076 71.5611L79.4508 65.9042C78.5959 65.0494 77.5903 64.4083 76.4338 63.9809C75.2773 63.5535 74.0956 63.3398 72.8888 63.3398C71.682 63.3398 70.5004 63.5535 69.3438 63.9809C68.1873 64.4083 67.1817 65.0494 66.3269 65.9042L61.198 71.0331ZM61.198 86.8723L57.9547 83.629L63.0836 78.5002C64.391 77.1928 65.8994 76.2123 67.6091 75.5586C69.3187 74.9049 71.0786 74.5781 72.8888 74.5781C74.699 74.5781 76.4463 74.9049 78.1308 75.5586C79.8153 76.2123 81.3112 77.1928 82.6186 78.5002L88.2754 84.157C89.1303 85.0118 90.1485 85.6529 91.3302 86.0803C92.5118 86.5077 93.7312 86.7214 94.9882 86.7214C96.2453 86.7214 97.4521 86.5077 98.6086 86.0803C99.7651 85.6529 100.771 85.0118 101.626 84.157L106.755 79.0281L109.998 82.196L104.869 87.4003C103.562 88.7076 102.04 89.6756 100.306 90.3041C98.5709 90.9327 96.7984 91.2469 94.9882 91.2469C93.1781 91.2469 91.4056 90.9327 89.6708 90.3041C87.936 89.6756 86.415 88.7076 85.1076 87.4003L79.4508 81.668C78.5959 80.8132 77.5903 80.1721 76.4338 79.7447C75.2773 79.3173 74.0956 79.1036 72.8888 79.1036C71.682 79.1036 70.5004 79.3173 69.3438 79.7447C68.1873 80.1721 67.1817 80.8132 66.3269 81.668L61.198 86.8723ZM61.198 102.636L57.9547 99.3928L63.0836 94.2639C64.391 92.9566 65.8994 91.976 67.6091 91.3224C69.3187 90.6687 71.0786 90.3418 72.8888 90.3418C74.699 90.3418 76.4463 90.6687 78.1308 91.3224C79.8153 91.976 81.3112 92.9566 82.6186 94.2639L88.2754 99.9208C89.1303 100.776 90.1485 101.429 91.3302 101.882C92.5118 102.334 93.7312 102.561 94.9882 102.561C96.2453 102.561 97.4521 102.334 98.6086 101.882C99.7651 101.429 100.771 100.776 101.626 99.9208L106.755 94.7919L109.998 97.9597L104.869 103.164C103.562 104.471 102.04 105.452 100.306 106.106C98.5709 106.759 96.7984 107.086 94.9882 107.086C93.1781 107.086 91.4056 106.759 89.6708 106.106C87.936 105.452 86.415 104.471 85.1076 103.164L79.4508 97.4318C78.5959 96.5769 77.5903 95.9358 76.4338 95.5084C75.2773 95.081 74.0956 94.8673 72.8888 94.8673C71.682 94.8673 70.5004 95.081 69.3438 95.5084C68.1873 95.9358 67.1817 96.5769 66.3269 97.4318L61.198 102.636Z" fill="#9BBED2"/>
<path d="M79.8067 81.3168L79.8043 81.3144C78.8974 80.4075 77.8299 79.7276 76.6071 79.2757C75.3963 78.8282 74.156 78.6036 72.8888 78.6036C71.6216 78.6036 70.3813 78.8282 69.1705 79.2757C67.9477 79.7276 66.8802 80.4075 65.9733 81.3144L65.9707 81.317L61.1954 86.1626L58.6618 83.629L63.4371 78.8537C64.6953 77.5955 66.1444 76.6539 67.7876 76.0256C69.4409 75.3935 71.1403 75.0781 72.8888 75.0781C74.6372 75.0781 76.3232 75.3935 77.9499 76.0247C79.5681 76.6527 81.0056 77.5943 82.265 78.8537L87.9219 84.5106C88.8306 85.4193 89.9122 86.0992 91.1601 86.5505C92.3963 86.9977 93.6732 87.2214 94.9882 87.2214C96.3033 87.2214 97.5689 86.9977 98.782 86.5493C100.005 86.0974 101.072 85.4174 101.979 84.5106L106.759 79.7311L109.289 82.2027L104.515 87.0467C104.515 87.0471 104.514 87.0476 104.514 87.048C103.259 88.303 101.801 89.2307 100.135 89.834C98.4541 90.4432 96.7392 90.7469 94.9882 90.7469C93.2373 90.7469 91.5224 90.4432 89.8411 89.834C88.1758 89.2307 86.7176 88.3029 85.4622 87.0478C85.4619 87.0474 85.4615 87.0471 85.4612 87.0467L79.8067 81.3168ZM79.8067 97.0805L79.8043 97.0782C78.8974 96.1713 77.8299 95.4913 76.6071 95.0394C75.3963 94.592 74.156 94.3673 72.8888 94.3673C71.6216 94.3673 70.3813 94.592 69.1705 95.0394C67.9477 95.4913 66.8802 96.1713 65.9733 97.0782L65.9707 97.0808L61.1954 101.926L58.6618 99.3928L63.4371 94.6175C64.6953 93.3593 66.1444 92.4177 67.7876 91.7894C69.4409 91.1572 71.1403 90.8418 72.8888 90.8418C74.6372 90.8418 76.3232 91.1572 77.9499 91.7885C79.5681 92.4164 81.0056 93.358 82.265 94.6175L87.9219 100.274C88.8287 101.181 89.9072 101.872 91.1513 102.349C92.3897 102.823 93.6696 103.061 94.9882 103.061C96.3069 103.061 97.5755 102.823 98.7908 102.347C100.01 101.87 101.074 101.179 101.979 100.274L106.759 95.4949L109.289 97.9665L104.515 102.81C104.515 102.811 104.514 102.811 104.514 102.812C103.257 104.068 101.797 105.009 100.129 105.638C98.4496 106.271 96.7368 106.586 94.9882 106.586C93.2397 106.586 91.5269 106.271 89.8471 105.638C88.1793 105.009 86.7191 104.068 85.4625 102.812C85.462 102.811 85.4616 102.811 85.4612 102.81L79.8067 97.0805ZM61.198 70.326L58.6618 67.7898L63.4371 63.0145C64.6941 61.7576 66.141 60.8295 67.7816 60.2264C69.4363 59.618 71.1379 59.3143 72.8888 59.3143C74.6397 59.3143 76.3278 59.618 77.956 60.2256C79.5715 60.8283 81.0069 61.7563 82.265 63.0145L87.9219 68.6714C88.8325 69.5819 89.9282 70.2617 91.2009 70.7125C92.4603 71.1585 93.7487 71.3823 95.0637 71.3823C96.3787 71.3823 97.633 71.1585 98.823 70.7089C100.021 70.2564 101.074 69.5764 101.979 68.6714L106.755 63.896L109.291 66.4322L104.515 71.2075C103.26 72.4632 101.801 73.3913 100.135 73.9948C98.4541 74.604 96.7392 74.9077 94.9882 74.9077C93.2373 74.9077 91.5224 74.604 89.8411 73.9948C88.1754 73.3913 86.7168 72.4632 85.4612 71.2075L79.8043 65.5507C78.8974 64.6438 77.8299 63.9638 76.6071 63.5119C75.3963 63.0644 74.156 62.8398 72.8888 62.8398C71.6216 62.8398 70.3813 63.0644 69.1705 63.5119C67.9477 63.9638 66.8802 64.6438 65.9733 65.5507L61.198 70.326Z" stroke="black" stroke-opacity="0.2"/>
</g>
</g>
<defs>
<filter id="filter0_i_8_104" x="4" y="3" width="163.967" height="160.033" filterUnits="userSpaceOnUse" color-interpolation-filters="sRGB">
<feFlood flood-opacity="0" result="BackgroundImageFix"/>
<feBlend mode="normal" in="SourceGraphic" in2="BackgroundImageFix" result="shape"/>
<feColorMatrix in="SourceAlpha" type="matrix" values="0 0 0 0 0 0 0 0 0 0 0 0 0 0 0 0 0 0 127 0" result="hardAlpha"/>
<feOffset dx="4"/>
<feGaussianBlur stdDeviation="2"/>
<feComposite in2="hardAlpha" operator="arithmetic" k2="-1" k3="1"/>
<feColorMatrix type="matrix" values="0 0 0 0 0.86675 0 0 0 0 0.4875 0 0 0 0 1 0 0 0 0.25 0"/>
<feBlend mode="normal" in2="shape" result="effect1_innerShadow_8_104"/>
</filter>
<filter id="filter1_df_8_104" x="0" y="0" width="167.967" height="171.033" filterUnits="userSpaceOnUse" color-interpolation-filters="sRGB">
<feFlood flood-opacity="0" result="BackgroundImageFix"/>
<feColorMatrix in="SourceAlpha" type="matrix" values="0 0 0 0 0 0 0 0 0 0 0 0 0 0 0 0 0 0 127 0" result="hardAlpha"/>
<feOffset dy="4"/>
<feGaussianBlur stdDeviation="2"/>
<feComposite in2="hardAlpha" operator="out"/>
<feColorMatrix type="matrix" values="0 0 0 0 0 0 0 0 0 0 0 0 0 0 0 0 0 0 0.25 0"/>
<feBlend mode="normal" in2="BackgroundImageFix" result="effect1_dropShadow_8_104"/>
<feBlend mode="normal" in="SourceGraphic" in2="effect1_dropShadow_8_104" result="shape"/>
<feGaussianBlur stdDeviation="1.5" result="effect2_foregroundBlur_8_104"/>
</filter>
<filter id="filter2_f_8_104" x="53.9547" y="54.8143" width="60.043" height="56.2718" filterUnits="userSpaceOnUse" color-interpolation-filters="sRGB">
<feFlood flood-opacity="0" result="BackgroundImageFix"/>
<feBlend mode="normal" in="SourceGraphic" in2="BackgroundImageFix" result="shape"/>
<feGaussianBlur stdDeviation="2" result="effect1_foregroundBlur_8_104"/>
</filter>
</defs>
</svg>
